<?xml version="1.0" encoding="UTF-8" standalone="no"?>
<!-- Created with Inkscape (http://www.inkscape.org/) -->

<svg
   version="1.1"
   id="svg2"
   width="223.36"
   height="223.36"
   viewBox="0 0 223.36 223.36"
   xmlns="http://www.w3.org/2000/svg"
   xmlns:svg="http://www.w3.org/2000/svg">
  <defs
     id="defs6" />
  <g
     id="layer1">
    <path
       id="path900"
       style="display:inline;fill:#bb86fc;fill-opacity:1;stroke:none;stroke-width:5.58506;stroke-linecap:round;stroke-linejoin:round;stroke-dasharray:1.39627, 1.39627;stroke-dashoffset:0;stroke-opacity:1"
       d="M 111.61523,0.04492187 A 111.57156,111.57156 0 0 0 0.04492187,111.61523 111.57156,111.57156 0 0 0 111.61523,223.1875 111.57156,111.57156 0 0 0 223.1875,111.61523 111.57156,111.57156 0 0 0 111.61523,0.04492187 Z m 0,36.10351613 a 75.467537,75.467537 0 0 1 75.46875,75.466792 75.467537,75.467537 0 0 1 -75.46875,75.46875 75.467537,75.467537 0 0 1 -75.466792,-75.46875 75.467537,75.467537 0 0 1 75.466792,-75.466792 z" />
    <path
       id="path900-9"
       style="display:inline;fill:#c08ffc;fill-opacity:1;stroke:none;stroke-width:4.9107;stroke-linecap:round;stroke-linejoin:round;stroke-dasharray:1.22768, 1.22768;stroke-dashoffset:0;stroke-opacity:1"
       d="m 111.61523,13.515625 a 98.099915,98.099915 0 0 0 -98.099605,98.099605 98.099915,98.099915 0 0 0 98.099605,98.09961 98.099915,98.099915 0 0 0 98.09961,-98.09961 98.099915,98.099915 0 0 0 -98.09961,-98.099605 z m 0,22.632813 a 75.467537,75.467537 0 0 1 75.46875,75.466792 75.467537,75.467537 0 0 1 -75.46875,75.46875 75.467537,75.467537 0 0 1 -75.466792,-75.46875 75.467537,75.467537 0 0 1 75.466792,-75.466792 z" />
  </g>
</svg>
